<?xml version="1.0" encoding="UTF-8" standalone="yes"?>
<!-- Created with sK1/UniConvertor (http://sk1project.org/) -->
<svg xmlns="http://www.w3.org/2000/svg" xmlns:xlink="http://www.w3.org/1999/xlink"
  width="595.276pt" height="841.89pt" viewBox="0 0 595.276 841.89"
  fill-rule="evenodd">
<g>
<path style="stroke:#000000; stroke-width:1; stroke-linejoin:round; stroke-linecap:round; fill:none" d="M 143.15 1021.89L 384.095 1021.89L 384.095 661.89L 143.15 661.89L 143.15 1021.89z"/>
<path style="stroke:#000000; stroke-width:1; stroke-linejoin:round; stroke-linecap:round; fill:none" d="M 265.748 671.811C 265.748 670.637 264.796 669.685 263.622 669.685C 262.448 669.685 261.496 670.637 261.496 671.811C 261.496 672.985 262.448 673.937 263.622 673.937C 264.796 673.937 265.748 672.985 265.748 671.811z"/>
<path style="stroke:#000000; stroke-width:1; stroke-linejoin:round; stroke-linecap:round; fill:none" d="M 294.095 671.811C 294.095 670.637 293.143 669.685 291.969 669.685C 290.794 669.685 289.842 670.637 289.842 671.811C 289.842 672.985 290.794 673.937 291.969 673.937C 293.143 673.937 294.095 672.985 294.095 671.811z"/>
<path style="stroke:#000000; stroke-width:1; stroke-linejoin:round; stroke-linecap:round; fill:none" d="M 322.441 671.811C 322.441 670.637 321.489 669.685 320.315 669.685C 319.141 669.685 318.189 670.637 318.189 671.811C 318.189 672.985 319.141 673.937 320.315 673.937C 321.489 673.937 322.441 672.985 322.441 671.811z"/>
<path style="stroke:#000000; stroke-width:1; stroke-linejoin:round; stroke-linecap:round; fill:none" d="M 350.787 671.811C 350.787 670.637 349.836 669.685 348.661 669.685C 347.487 669.685 346.535 670.637 346.535 671.811C 346.535 672.985 347.487 673.937 348.661 673.937C 349.836 673.937 350.787 672.985 350.787 671.811z"/>
<path style="stroke:#000000; stroke-width:1; stroke-linejoin:round; stroke-linecap:round; fill:none" d="M 379.134 671.811C 379.134 670.637 378.182 669.685 377.008 669.685C 375.834 669.685 374.882 670.637 374.882 671.811C 374.882 672.985 375.834 673.937 377.008 673.937C 378.182 673.937 379.134 672.985 379.134 671.811z"/>
<path style="stroke:#000000; stroke-width:1; stroke-linejoin:round; stroke-linecap:round; fill:none" d="M 148.11 671.811C 148.11 670.637 149.062 669.685 150.236 669.685C 151.41 669.685 152.362 670.637 152.362 671.811C 152.362 672.985 151.41 673.937 150.236 673.937C 149.062 673.937 148.11 672.985 148.11 671.811z"/>
<path style="stroke:#000000; stroke-width:1; stroke-linejoin:round; stroke-linecap:round; fill:none" d="M 176.457 671.811C 176.457 670.637 177.408 669.685 178.583 669.685C 179.757 669.685 180.709 670.637 180.709 671.811C 180.709 672.985 179.757 673.937 178.583 673.937C 177.408 673.937 176.457 672.985 176.457 671.811z"/>
<path style="stroke:#000000; stroke-width:1; stroke-linejoin:round; stroke-linecap:round; fill:none" d="M 204.803 671.811C 204.803 670.637 205.755 669.685 206.929 669.685C 208.103 669.685 209.055 670.637 209.055 671.811C 209.055 672.985 208.103 673.937 206.929 673.937C 205.755 673.937 204.803 672.985 204.803 671.811z"/>
<path style="stroke:#000000; stroke-width:1; stroke-linejoin:round; stroke-linecap:round; fill:none" d="M 233.15 671.811C 233.15 670.637 234.101 669.685 235.276 669.685C 236.45 669.685 237.402 670.637 237.402 671.811C 237.402 672.985 236.45 673.937 235.276 673.937C 234.101 673.937 233.15 672.985 233.15 671.811z"/>
<path style="stroke:#000000; stroke-width:1; stroke-linejoin:round; stroke-linecap:round; fill:none" d="M 233.15 700.157C 233.15 698.983 234.101 698.031 235.276 698.031C 236.45 698.031 237.402 698.983 237.402 700.157C 237.402 701.332 236.45 702.283 235.276 702.283C 234.101 702.283 233.15 701.332 233.15 700.157z"/>
<path style="stroke:#000000; stroke-width:1; stroke-linejoin:round; stroke-linecap:round; fill:none" d="M 204.803 700.157C 204.803 698.983 205.755 698.031 206.929 698.031C 208.103 698.031 209.055 698.983 209.055 700.157C 209.055 701.332 208.103 702.283 206.929 702.283C 205.755 702.283 204.803 701.332 204.803 700.157z"/>
<path style="stroke:#000000; stroke-width:1; stroke-linejoin:round; stroke-linecap:round; fill:none" d="M 176.457 700.157C 176.457 698.983 177.408 698.031 178.583 698.031C 179.757 698.031 180.709 698.983 180.709 700.157C 180.709 701.332 179.757 702.283 178.583 702.283C 177.408 702.283 176.457 701.332 176.457 700.157z"/>
<path style="stroke:#000000; stroke-width:1; stroke-linejoin:round; stroke-linecap:round; fill:none" d="M 148.11 700.157C 148.11 698.983 149.062 698.031 150.236 698.031C 151.41 698.031 152.362 698.983 152.362 700.157C 152.362 701.332 151.41 702.283 150.236 702.283C 149.062 702.283 148.11 701.332 148.11 700.157z"/>
<path style="stroke:#000000; stroke-width:1; stroke-linejoin:round; stroke-linecap:round; fill:none" d="M 379.134 700.157C 379.134 698.983 378.182 698.031 377.008 698.031C 375.834 698.031 374.882 698.983 374.882 700.157C 374.882 701.332 375.834 702.283 377.008 702.283C 378.182 702.283 379.134 701.332 379.134 700.157z"/>
<path style="stroke:#000000; stroke-width:1; stroke-linejoin:round; stroke-linecap:round; fill:none" d="M 350.787 700.157C 350.787 698.983 349.836 698.031 348.661 698.031C 347.487 698.031 346.535 698.983 346.535 700.157C 346.535 701.332 347.487 702.283 348.661 702.283C 349.836 702.283 350.787 701.332 350.787 700.157z"/>
<path style="stroke:#000000; stroke-width:1; stroke-linejoin:round; stroke-linecap:round; fill:none" d="M 322.441 700.157C 322.441 698.983 321.489 698.031 320.315 698.031C 319.141 698.031 318.189 698.983 318.189 700.157C 318.189 701.332 319.141 702.283 320.315 702.283C 321.489 702.283 322.441 701.332 322.441 700.157z"/>
<path style="stroke:#000000; stroke-width:1; stroke-linejoin:round; stroke-linecap:round; fill:none" d="M 294.095 700.157C 294.095 698.983 293.143 698.031 291.969 698.031C 290.794 698.031 289.842 698.983 289.842 700.157C 289.842 701.332 290.794 702.283 291.969 702.283C 293.143 702.283 294.095 701.332 294.095 700.157z"/>
<path style="stroke:#000000; stroke-width:1; stroke-linejoin:round; stroke-linecap:round; fill:none" d="M 265.748 700.157C 265.748 698.983 264.796 698.031 263.622 698.031C 262.448 698.031 261.496 698.983 261.496 700.157C 261.496 701.332 262.448 702.283 263.622 702.283C 264.796 702.283 265.748 701.332 265.748 700.157z"/>
<path style="stroke:#000000; stroke-width:1; stroke-linejoin:round; stroke-linecap:round; fill:none" d="M 233.15 728.504C 233.15 727.33 234.101 726.378 235.276 726.378C 236.45 726.378 237.402 727.33 237.402 728.504C 237.402 729.678 236.45 730.63 235.276 730.63C 234.101 730.63 233.15 729.678 233.15 728.504z"/>
<path style="stroke:#000000; stroke-width:1; stroke-linejoin:round; stroke-linecap:round; fill:none" d="M 204.803 728.504C 204.803 727.33 205.755 726.378 206.929 726.378C 208.103 726.378 209.055 727.33 209.055 728.504C 209.055 729.678 208.103 730.63 206.929 730.63C 205.755 730.63 204.803 729.678 204.803 728.504z"/>
<path style="stroke:#000000; stroke-width:1; stroke-linejoin:round; stroke-linecap:round; fill:none" d="M 176.457 728.504C 176.457 727.33 177.408 726.378 178.583 726.378C 179.757 726.378 180.709 727.33 180.709 728.504C 180.709 729.678 179.757 730.63 178.583 730.63C 177.408 730.63 176.457 729.678 176.457 728.504z"/>
<path style="stroke:#000000; stroke-width:1; stroke-linejoin:round; stroke-linecap:round; fill:none" d="M 148.11 728.504C 148.11 727.33 149.062 726.378 150.236 726.378C 151.41 726.378 152.362 727.33 152.362 728.504C 152.362 729.678 151.41 730.63 150.236 730.63C 149.062 730.63 148.11 729.678 148.11 728.504z"/>
<path style="stroke:#000000; stroke-width:1; stroke-linejoin:round; stroke-linecap:round; fill:none" d="M 379.134 728.504C 379.134 727.33 378.182 726.378 377.008 726.378C 375.834 726.378 374.882 727.33 374.882 728.504C 374.882 729.678 375.834 730.63 377.008 730.63C 378.182 730.63 379.134 729.678 379.134 728.504z"/>
<path style="stroke:#000000; stroke-width:1; stroke-linejoin:round; stroke-linecap:round; fill:none" d="M 350.787 728.504C 350.787 727.33 349.836 726.378 348.661 726.378C 347.487 726.378 346.535 727.33 346.535 728.504C 346.535 729.678 347.487 730.63 348.661 730.63C 349.836 730.63 350.787 729.678 350.787 728.504z"/>
<path style="stroke:#000000; stroke-width:1; stroke-linejoin:round; stroke-linecap:round; fill:none" d="M 322.441 728.504C 322.441 727.33 321.489 726.378 320.315 726.378C 319.141 726.378 318.189 727.33 318.189 728.504C 318.189 729.678 319.141 730.63 320.315 730.63C 321.489 730.63 322.441 729.678 322.441 728.504z"/>
<path style="stroke:#000000; stroke-width:1; stroke-linejoin:round; stroke-linecap:round; fill:none" d="M 294.095 728.504C 294.095 727.33 293.143 726.378 291.969 726.378C 290.794 726.378 289.842 727.33 289.842 728.504C 289.842 729.678 290.794 730.63 291.969 730.63C 293.143 730.63 294.095 729.678 294.095 728.504z"/>
<path style="stroke:#000000; stroke-width:1; stroke-linejoin:round; stroke-linecap:round; fill:none" d="M 265.748 728.504C 265.748 727.33 264.796 726.378 263.622 726.378C 262.448 726.378 261.496 727.33 261.496 728.504C 261.496 729.678 262.448 730.63 263.622 730.63C 264.796 730.63 265.748 729.678 265.748 728.504z"/>
<path style="stroke:#000000; stroke-width:1; stroke-linejoin:round; stroke-linecap:round; fill:none" d="M 233.15 756.85C 233.15 755.676 234.101 754.724 235.276 754.724C 236.45 754.724 237.402 755.676 237.402 756.85C 237.402 758.025 236.45 758.976 235.276 758.976C 234.101 758.976 233.15 758.025 233.15 756.85z"/>
<path style="stroke:#000000; stroke-width:1; stroke-linejoin:round; stroke-linecap:round; fill:none" d="M 204.803 756.85C 204.803 755.676 205.755 754.724 206.929 754.724C 208.103 754.724 209.055 755.676 209.055 756.85C 209.055 758.025 208.103 758.976 206.929 758.976C 205.755 758.976 204.803 758.025 204.803 756.85z"/>
<path style="stroke:#000000; stroke-width:1; stroke-linejoin:round; stroke-linecap:round; fill:none" d="M 176.457 756.85C 176.457 755.676 177.408 754.724 178.583 754.724C 179.757 754.724 180.709 755.676 180.709 756.85C 180.709 758.025 179.757 758.976 178.583 758.976C 177.408 758.976 176.457 758.025 176.457 756.85z"/>
<path style="stroke:#000000; stroke-width:1; stroke-linejoin:round; stroke-linecap:round; fill:none" d="M 148.11 756.85C 148.11 755.676 149.062 754.724 150.236 754.724C 151.41 754.724 152.362 755.676 152.362 756.85C 152.362 758.025 151.41 758.976 150.236 758.976C 149.062 758.976 148.11 758.025 148.11 756.85z"/>
<path style="stroke:#000000; stroke-width:1; stroke-linejoin:round; stroke-linecap:round; fill:none" d="M 379.134 756.85C 379.134 755.676 378.182 754.724 377.008 754.724C 375.834 754.724 374.882 755.676 374.882 756.85C 374.882 758.025 375.834 758.976 377.008 758.976C 378.182 758.976 379.134 758.025 379.134 756.85z"/>
<path style="stroke:#000000; stroke-width:1; stroke-linejoin:round; stroke-linecap:round; fill:none" d="M 350.787 756.85C 350.787 755.676 349.836 754.724 348.661 754.724C 347.487 754.724 346.535 755.676 346.535 756.85C 346.535 758.025 347.487 758.976 348.661 758.976C 349.836 758.976 350.787 758.025 350.787 756.85z"/>
<path style="stroke:#000000; stroke-width:1; stroke-linejoin:round; stroke-linecap:round; fill:none" d="M 322.441 756.85C 322.441 755.676 321.489 754.724 320.315 754.724C 319.141 754.724 318.189 755.676 318.189 756.85C 318.189 758.025 319.141 758.976 320.315 758.976C 321.489 758.976 322.441 758.025 322.441 756.85z"/>
<path style="stroke:#000000; stroke-width:1; stroke-linejoin:round; stroke-linecap:round; fill:none" d="M 294.095 756.85C 294.095 755.676 293.143 754.724 291.969 754.724C 290.794 754.724 289.842 755.676 289.842 756.85C 289.842 758.025 290.794 758.976 291.969 758.976C 293.143 758.976 294.095 758.025 294.095 756.85z"/>
<path style="stroke:#000000; stroke-width:1; stroke-linejoin:round; stroke-linecap:round; fill:none" d="M 265.748 756.85C 265.748 755.676 264.796 754.724 263.622 754.724C 262.448 754.724 261.496 755.676 261.496 756.85C 261.496 758.025 262.448 758.976 263.622 758.976C 264.796 758.976 265.748 758.025 265.748 756.85z"/>
<path style="stroke:#000000; stroke-width:1; stroke-linejoin:round; stroke-linecap:round; fill:none" d="M 233.15 785.197C 233.15 784.023 234.101 783.071 235.276 783.071C 236.45 783.071 237.402 784.023 237.402 785.197C 237.402 786.371 236.45 787.323 235.276 787.323C 234.101 787.323 233.15 786.371 233.15 785.197z"/>
<path style="stroke:#000000; stroke-width:1; stroke-linejoin:round; stroke-linecap:round; fill:none" d="M 204.803 785.197C 204.803 784.023 205.755 783.071 206.929 783.071C 208.103 783.071 209.055 784.023 209.055 785.197C 209.055 786.371 208.103 787.323 206.929 787.323C 205.755 787.323 204.803 786.371 204.803 785.197z"/>
<path style="stroke:#000000; stroke-width:1; stroke-linejoin:round; stroke-linecap:round; fill:none" d="M 176.457 785.197C 176.457 784.023 177.408 783.071 178.583 783.071C 179.757 783.071 180.709 784.023 180.709 785.197C 180.709 786.371 179.757 787.323 178.583 787.323C 177.408 787.323 176.457 786.371 176.457 785.197z"/>
<path style="stroke:#000000; stroke-width:1; stroke-linejoin:round; stroke-linecap:round; fill:none" d="M 148.11 785.197C 148.11 784.023 149.062 783.071 150.236 783.071C 151.41 783.071 152.362 784.023 152.362 785.197C 152.362 786.371 151.41 787.323 150.236 787.323C 149.062 787.323 148.11 786.371 148.11 785.197z"/>
<path style="stroke:#000000; stroke-width:1; stroke-linejoin:round; stroke-linecap:round; fill:none" d="M 379.134 785.197C 379.134 784.023 378.182 783.071 377.008 783.071C 375.834 783.071 374.882 784.023 374.882 785.197C 374.882 786.371 375.834 787.323 377.008 787.323C 378.182 787.323 379.134 786.371 379.134 785.197z"/>
<path style="stroke:#000000; stroke-width:1; stroke-linejoin:round; stroke-linecap:round; fill:none" d="M 350.787 785.197C 350.787 784.023 349.836 783.071 348.661 783.071C 347.487 783.071 346.535 784.023 346.535 785.197C 346.535 786.371 347.487 787.323 348.661 787.323C 349.836 787.323 350.787 786.371 350.787 785.197z"/>
<path style="stroke:#000000; stroke-width:1; stroke-linejoin:round; stroke-linecap:round; fill:none" d="M 322.441 785.197C 322.441 784.023 321.489 783.071 320.315 783.071C 319.141 783.071 318.189 784.023 318.189 785.197C 318.189 786.371 319.141 787.323 320.315 787.323C 321.489 787.323 322.441 786.371 322.441 785.197z"/>
<path style="stroke:#000000; stroke-width:1; stroke-linejoin:round; stroke-linecap:round; fill:none" d="M 294.095 785.197C 294.095 784.023 293.143 783.071 291.969 783.071C 290.794 783.071 289.842 784.023 289.842 785.197C 289.842 786.371 290.794 787.323 291.969 787.323C 293.143 787.323 294.095 786.371 294.095 785.197z"/>
<path style="stroke:#000000; stroke-width:1; stroke-linejoin:round; stroke-linecap:round; fill:none" d="M 265.748 785.197C 265.748 784.023 264.796 783.071 263.622 783.071C 262.448 783.071 261.496 784.023 261.496 785.197C 261.496 786.371 262.448 787.323 263.622 787.323C 264.796 787.323 265.748 786.371 265.748 785.197z"/>
<path style="stroke:#000000; stroke-width:1; stroke-linejoin:round; stroke-linecap:round; fill:none" d="M 233.15 813.543C 233.15 812.369 234.101 811.417 235.276 811.417C 236.45 811.417 237.402 812.369 237.402 813.543C 237.402 814.717 236.45 815.669 235.276 815.669C 234.101 815.669 233.15 814.717 233.15 813.543z"/>
<path style="stroke:#000000; stroke-width:1; stroke-linejoin:round; stroke-linecap:round; fill:none" d="M 204.803 813.543C 204.803 812.369 205.755 811.417 206.929 811.417C 208.103 811.417 209.055 812.369 209.055 813.543C 209.055 814.717 208.103 815.669 206.929 815.669C 205.755 815.669 204.803 814.717 204.803 813.543z"/>
<path style="stroke:#000000; stroke-width:1; stroke-linejoin:round; stroke-linecap:round; fill:none" d="M 176.457 813.543C 176.457 812.369 177.408 811.417 178.583 811.417C 179.757 811.417 180.709 812.369 180.709 813.543C 180.709 814.717 179.757 815.669 178.583 815.669C 177.408 815.669 176.457 814.717 176.457 813.543z"/>
<path style="stroke:#000000; stroke-width:1; stroke-linejoin:round; stroke-linecap:round; fill:none" d="M 148.11 813.543C 148.11 812.369 149.062 811.417 150.236 811.417C 151.41 811.417 152.362 812.369 152.362 813.543C 152.362 814.717 151.41 815.669 150.236 815.669C 149.062 815.669 148.11 814.717 148.11 813.543z"/>
<path style="stroke:#000000; stroke-width:1; stroke-linejoin:round; stroke-linecap:round; fill:none" d="M 379.134 813.543C 379.134 812.369 378.182 811.417 377.008 811.417C 375.834 811.417 374.882 812.369 374.882 813.543C 374.882 814.717 375.834 815.669 377.008 815.669C 378.182 815.669 379.134 814.717 379.134 813.543z"/>
<path style="stroke:#000000; stroke-width:1; stroke-linejoin:round; stroke-linecap:round; fill:none" d="M 350.787 813.543C 350.787 812.369 349.836 811.417 348.661 811.417C 347.487 811.417 346.535 812.369 346.535 813.543C 346.535 814.717 347.487 815.669 348.661 815.669C 349.836 815.669 350.787 814.717 350.787 813.543z"/>
<path style="stroke:#000000; stroke-width:1; stroke-linejoin:round; stroke-linecap:round; fill:none" d="M 322.441 813.543C 322.441 812.369 321.489 811.417 320.315 811.417C 319.141 811.417 318.189 812.369 318.189 813.543C 318.189 814.717 319.141 815.669 320.315 815.669C 321.489 815.669 322.441 814.717 322.441 813.543z"/>
<path style="stroke:#000000; stroke-width:1; stroke-linejoin:round; stroke-linecap:round; fill:none" d="M 294.095 813.543C 294.095 812.369 293.143 811.417 291.969 811.417C 290.794 811.417 289.842 812.369 289.842 813.543C 289.842 814.717 290.794 815.669 291.969 815.669C 293.143 815.669 294.095 814.717 294.095 813.543z"/>
<path style="stroke:#000000; stroke-width:1; stroke-linejoin:round; stroke-linecap:round; fill:none" d="M 265.748 813.543C 265.748 812.369 264.796 811.417 263.622 811.417C 262.448 811.417 261.496 812.369 261.496 813.543C 261.496 814.717 262.448 815.669 263.622 815.669C 264.796 815.669 265.748 814.717 265.748 813.543z"/>
<path style="stroke:#000000; stroke-width:1; stroke-linejoin:round; stroke-linecap:round; fill:none" d="M 233.15 841.89C 233.15 840.716 234.101 839.764 235.276 839.764C 236.45 839.764 237.402 840.716 237.402 841.89C 237.402 843.064 236.45 844.016 235.276 844.016C 234.101 844.016 233.15 843.064 233.15 841.89z"/>
<path style="stroke:#000000; stroke-width:1; stroke-linejoin:round; stroke-linecap:round; fill:none" d="M 204.803 841.89C 204.803 840.716 205.755 839.764 206.929 839.764C 208.103 839.764 209.055 840.716 209.055 841.89C 209.055 843.064 208.103 844.016 206.929 844.016C 205.755 844.016 204.803 843.064 204.803 841.89z"/>
<path style="stroke:#000000; stroke-width:1; stroke-linejoin:round; stroke-linecap:round; fill:none" d="M 176.457 841.89C 176.457 840.716 177.408 839.764 178.583 839.764C 179.757 839.764 180.709 840.716 180.709 841.89C 180.709 843.064 179.757 844.016 178.583 844.016C 177.408 844.016 176.457 843.064 176.457 841.89z"/>
<path style="stroke:#000000; stroke-width:1; stroke-linejoin:round; stroke-linecap:round; fill:none" d="M 148.11 841.89C 148.11 840.716 149.062 839.764 150.236 839.764C 151.41 839.764 152.362 840.716 152.362 841.89C 152.362 843.064 151.41 844.016 150.236 844.016C 149.062 844.016 148.11 843.064 148.11 841.89z"/>
<path style="stroke:#000000; stroke-width:1; stroke-linejoin:round; stroke-linecap:round; fill:none" d="M 379.134 841.89C 379.134 840.716 378.182 839.764 377.008 839.764C 375.834 839.764 374.882 840.716 374.882 841.89C 374.882 843.064 375.834 844.016 377.008 844.016C 378.182 844.016 379.134 843.064 379.134 841.89z"/>
<path style="stroke:#000000; stroke-width:1; stroke-linejoin:round; stroke-linecap:round; fill:none" d="M 350.787 841.89C 350.787 840.716 349.836 839.764 348.661 839.764C 347.487 839.764 346.535 840.716 346.535 841.89C 346.535 843.064 347.487 844.016 348.661 844.016C 349.836 844.016 350.787 843.064 350.787 841.89z"/>
<path style="stroke:#000000; stroke-width:1; stroke-linejoin:round; stroke-linecap:round; fill:none" d="M 322.441 841.89C 322.441 840.716 321.489 839.764 320.315 839.764C 319.141 839.764 318.189 840.716 318.189 841.89C 318.189 843.064 319.141 844.016 320.315 844.016C 321.489 844.016 322.441 843.064 322.441 841.89z"/>
<path style="stroke:#000000; stroke-width:1; stroke-linejoin:round; stroke-linecap:round; fill:none" d="M 294.095 841.89C 294.095 840.716 293.143 839.764 291.969 839.764C 290.794 839.764 289.842 840.716 289.842 841.89C 289.842 843.064 290.794 844.016 291.969 844.016C 293.143 844.016 294.095 843.064 294.095 841.89z"/>
<path style="stroke:#000000; stroke-width:1; stroke-linejoin:round; stroke-linecap:round; fill:none" d="M 265.748 841.89C 265.748 840.716 264.796 839.764 263.622 839.764C 262.448 839.764 261.496 840.716 261.496 841.89C 261.496 843.064 262.448 844.016 263.622 844.016C 264.796 844.016 265.748 843.064 265.748 841.89z"/>
<path style="stroke:#000000; stroke-width:1; stroke-linejoin:round; stroke-linecap:round; fill:none" d="M 233.15 870.236C 233.15 869.062 234.101 868.11 235.276 868.11C 236.45 868.11 237.402 869.062 237.402 870.236C 237.402 871.41 236.45 872.362 235.276 872.362C 234.101 872.362 233.15 871.41 233.15 870.236z"/>
<path style="stroke:#000000; stroke-width:1; stroke-linejoin:round; stroke-linecap:round; fill:none" d="M 204.803 870.236C 204.803 869.062 205.755 868.11 206.929 868.11C 208.103 868.11 209.055 869.062 209.055 870.236C 209.055 871.41 208.103 872.362 206.929 872.362C 205.755 872.362 204.803 871.41 204.803 870.236z"/>
<path style="stroke:#000000; stroke-width:1; stroke-linejoin:round; stroke-linecap:round; fill:none" d="M 176.457 870.236C 176.457 869.062 177.408 868.11 178.583 868.11C 179.757 868.11 180.709 869.062 180.709 870.236C 180.709 871.41 179.757 872.362 178.583 872.362C 177.408 872.362 176.457 871.41 176.457 870.236z"/>
<path style="stroke:#000000; stroke-width:1; stroke-linejoin:round; stroke-linecap:round; fill:none" d="M 148.11 870.236C 148.11 869.062 149.062 868.11 150.236 868.11C 151.41 868.11 152.362 869.062 152.362 870.236C 152.362 871.41 151.41 872.362 150.236 872.362C 149.062 872.362 148.11 871.41 148.11 870.236z"/>
<path style="stroke:#000000; stroke-width:1; stroke-linejoin:round; stroke-linecap:round; fill:none" d="M 379.134 870.236C 379.134 869.062 378.182 868.11 377.008 868.11C 375.834 868.11 374.882 869.062 374.882 870.236C 374.882 871.41 375.834 872.362 377.008 872.362C 378.182 872.362 379.134 871.41 379.134 870.236z"/>
<path style="stroke:#000000; stroke-width:1; stroke-linejoin:round; stroke-linecap:round; fill:none" d="M 350.787 870.236C 350.787 869.062 349.836 868.11 348.661 868.11C 347.487 868.11 346.535 869.062 346.535 870.236C 346.535 871.41 347.487 872.362 348.661 872.362C 349.836 872.362 350.787 871.41 350.787 870.236z"/>
<path style="stroke:#000000; stroke-width:1; stroke-linejoin:round; stroke-linecap:round; fill:none" d="M 322.441 870.236C 322.441 869.062 321.489 868.11 320.315 868.11C 319.141 868.11 318.189 869.062 318.189 870.236C 318.189 871.41 319.141 872.362 320.315 872.362C 321.489 872.362 322.441 871.41 322.441 870.236z"/>
<path style="stroke:#000000; stroke-width:1; stroke-linejoin:round; stroke-linecap:round; fill:none" d="M 294.095 870.236C 294.095 869.062 293.143 868.11 291.969 868.11C 290.794 868.11 289.842 869.062 289.842 870.236C 289.842 871.41 290.794 872.362 291.969 872.362C 293.143 872.362 294.095 871.41 294.095 870.236z"/>
<path style="stroke:#000000; stroke-width:1; stroke-linejoin:round; stroke-linecap:round; fill:none" d="M 265.748 870.236C 265.748 869.062 264.796 868.11 263.622 868.11C 262.448 868.11 261.496 869.062 261.496 870.236C 261.496 871.41 262.448 872.362 263.622 872.362C 264.796 872.362 265.748 871.41 265.748 870.236z"/>
<path style="stroke:#000000; stroke-width:1; stroke-linejoin:round; stroke-linecap:round; fill:none" d="M 233.15 898.583C 233.15 897.409 234.101 896.457 235.276 896.457C 236.45 896.457 237.402 897.409 237.402 898.583C 237.402 899.757 236.45 900.709 235.276 900.709C 234.101 900.709 233.15 899.757 233.15 898.583z"/>
<path style="stroke:#000000; stroke-width:1; stroke-linejoin:round; stroke-linecap:round; fill:none" d="M 204.803 898.583C 204.803 897.409 205.755 896.457 206.929 896.457C 208.103 896.457 209.055 897.409 209.055 898.583C 209.055 899.757 208.103 900.709 206.929 900.709C 205.755 900.709 204.803 899.757 204.803 898.583z"/>
<path style="stroke:#000000; stroke-width:1; stroke-linejoin:round; stroke-linecap:round; fill:none" d="M 176.457 898.583C 176.457 897.409 177.408 896.457 178.583 896.457C 179.757 896.457 180.709 897.409 180.709 898.583C 180.709 899.757 179.757 900.709 178.583 900.709C 177.408 900.709 176.457 899.757 176.457 898.583z"/>
<path style="stroke:#000000; stroke-width:1; stroke-linejoin:round; stroke-linecap:round; fill:none" d="M 148.11 898.583C 148.11 897.409 149.062 896.457 150.236 896.457C 151.41 896.457 152.362 897.409 152.362 898.583C 152.362 899.757 151.41 900.709 150.236 900.709C 149.062 900.709 148.11 899.757 148.11 898.583z"/>
<path style="stroke:#000000; stroke-width:1; stroke-linejoin:round; stroke-linecap:round; fill:none" d="M 379.134 898.583C 379.134 897.409 378.182 896.457 377.008 896.457C 375.834 896.457 374.882 897.409 374.882 898.583C 374.882 899.757 375.834 900.709 377.008 900.709C 378.182 900.709 379.134 899.757 379.134 898.583z"/>
<path style="stroke:#000000; stroke-width:1; stroke-linejoin:round; stroke-linecap:round; fill:none" d="M 350.787 898.583C 350.787 897.409 349.836 896.457 348.661 896.457C 347.487 896.457 346.535 897.409 346.535 898.583C 346.535 899.757 347.487 900.709 348.661 900.709C 349.836 900.709 350.787 899.757 350.787 898.583z"/>
<path style="stroke:#000000; stroke-width:1; stroke-linejoin:round; stroke-linecap:round; fill:none" d="M 322.441 898.583C 322.441 897.409 321.489 896.457 320.315 896.457C 319.141 896.457 318.189 897.409 318.189 898.583C 318.189 899.757 319.141 900.709 320.315 900.709C 321.489 900.709 322.441 899.757 322.441 898.583z"/>
<path style="stroke:#000000; stroke-width:1; stroke-linejoin:round; stroke-linecap:round; fill:none" d="M 294.095 898.583C 294.095 897.409 293.143 896.457 291.969 896.457C 290.794 896.457 289.842 897.409 289.842 898.583C 289.842 899.757 290.794 900.709 291.969 900.709C 293.143 900.709 294.095 899.757 294.095 898.583z"/>
<path style="stroke:#000000; stroke-width:1; stroke-linejoin:round; stroke-linecap:round; fill:none" d="M 265.748 898.583C 265.748 897.409 264.796 896.457 263.622 896.457C 262.448 896.457 261.496 897.409 261.496 898.583C 261.496 899.757 262.448 900.709 263.622 900.709C 264.796 900.709 265.748 899.757 265.748 898.583z"/>
<path style="stroke:#000000; stroke-width:1; stroke-linejoin:round; stroke-linecap:round; fill:none" d="M 233.15 926.929C 233.15 925.755 234.101 924.803 235.276 924.803C 236.45 924.803 237.402 925.755 237.402 926.929C 237.402 928.103 236.45 929.055 235.276 929.055C 234.101 929.055 233.15 928.103 233.15 926.929z"/>
<path style="stroke:#000000; stroke-width:1; stroke-linejoin:round; stroke-linecap:round; fill:none" d="M 204.803 926.929C 204.803 925.755 205.755 924.803 206.929 924.803C 208.103 924.803 209.055 925.755 209.055 926.929C 209.055 928.103 208.103 929.055 206.929 929.055C 205.755 929.055 204.803 928.103 204.803 926.929z"/>
<path style="stroke:#000000; stroke-width:1; stroke-linejoin:round; stroke-linecap:round; fill:none" d="M 176.457 926.929C 176.457 925.755 177.408 924.803 178.583 924.803C 179.757 924.803 180.709 925.755 180.709 926.929C 180.709 928.103 179.757 929.055 178.583 929.055C 177.408 929.055 176.457 928.103 176.457 926.929z"/>
<path style="stroke:#000000; stroke-width:1; stroke-linejoin:round; stroke-linecap:round; fill:none" d="M 148.11 926.929C 148.11 925.755 149.062 924.803 150.236 924.803C 151.41 924.803 152.362 925.755 152.362 926.929C 152.362 928.103 151.41 929.055 150.236 929.055C 149.062 929.055 148.11 928.103 148.11 926.929z"/>
<path style="stroke:#000000; stroke-width:1; stroke-linejoin:round; stroke-linecap:round; fill:none" d="M 379.134 926.929C 379.134 925.755 378.182 924.803 377.008 924.803C 375.834 924.803 374.882 925.755 374.882 926.929C 374.882 928.103 375.834 929.055 377.008 929.055C 378.182 929.055 379.134 928.103 379.134 926.929z"/>
<path style="stroke:#000000; stroke-width:1; stroke-linejoin:round; stroke-linecap:round; fill:none" d="M 350.787 926.929C 350.787 925.755 349.836 924.803 348.661 924.803C 347.487 924.803 346.535 925.755 346.535 926.929C 346.535 928.103 347.487 929.055 348.661 929.055C 349.836 929.055 350.787 928.103 350.787 926.929z"/>
<path style="stroke:#000000; stroke-width:1; stroke-linejoin:round; stroke-linecap:round; fill:none" d="M 322.441 926.929C 322.441 925.755 321.489 924.803 320.315 924.803C 319.141 924.803 318.189 925.755 318.189 926.929C 318.189 928.103 319.141 929.055 320.315 929.055C 321.489 929.055 322.441 928.103 322.441 926.929z"/>
<path style="stroke:#000000; stroke-width:1; stroke-linejoin:round; stroke-linecap:round; fill:none" d="M 294.095 926.929C 294.095 925.755 293.143 924.803 291.969 924.803C 290.794 924.803 289.842 925.755 289.842 926.929C 289.842 928.103 290.794 929.055 291.969 929.055C 293.143 929.055 294.095 928.103 294.095 926.929z"/>
<path style="stroke:#000000; stroke-width:1; stroke-linejoin:round; stroke-linecap:round; fill:none" d="M 265.748 926.929C 265.748 925.755 264.796 924.803 263.622 924.803C 262.448 924.803 261.496 925.755 261.496 926.929C 261.496 928.103 262.448 929.055 263.622 929.055C 264.796 929.055 265.748 928.103 265.748 926.929z"/>
<path style="stroke:#000000; stroke-width:1; stroke-linejoin:round; stroke-linecap:round; fill:none" d="M 233.15 955.276C 233.15 954.101 234.101 953.15 235.276 953.15C 236.45 953.15 237.402 954.101 237.402 955.276C 237.402 956.45 236.45 957.402 235.276 957.402C 234.101 957.402 233.15 956.45 233.15 955.276z"/>
<path style="stroke:#000000; stroke-width:1; stroke-linejoin:round; stroke-linecap:round; fill:none" d="M 204.803 955.276C 204.803 954.101 205.755 953.15 206.929 953.15C 208.103 953.15 209.055 954.101 209.055 955.276C 209.055 956.45 208.103 957.402 206.929 957.402C 205.755 957.402 204.803 956.45 204.803 955.276z"/>
<path style="stroke:#000000; stroke-width:1; stroke-linejoin:round; stroke-linecap:round; fill:none" d="M 176.457 955.276C 176.457 954.101 177.408 953.15 178.583 953.15C 179.757 953.15 180.709 954.101 180.709 955.276C 180.709 956.45 179.757 957.402 178.583 957.402C 177.408 957.402 176.457 956.45 176.457 955.276z"/>
<path style="stroke:#000000; stroke-width:1; stroke-linejoin:round; stroke-linecap:round; fill:none" d="M 148.11 955.276C 148.11 954.101 149.062 953.15 150.236 953.15C 151.41 953.15 152.362 954.101 152.362 955.276C 152.362 956.45 151.41 957.402 150.236 957.402C 149.062 957.402 148.11 956.45 148.11 955.276z"/>
<path style="stroke:#000000; stroke-width:1; stroke-linejoin:round; stroke-linecap:round; fill:none" d="M 379.134 955.276C 379.134 954.101 378.182 953.15 377.008 953.15C 375.834 953.15 374.882 954.101 374.882 955.276C 374.882 956.45 375.834 957.402 377.008 957.402C 378.182 957.402 379.134 956.45 379.134 955.276z"/>
<path style="stroke:#000000; stroke-width:1; stroke-linejoin:round; stroke-linecap:round; fill:none" d="M 350.787 955.276C 350.787 954.101 349.836 953.15 348.661 953.15C 347.487 953.15 346.535 954.101 346.535 955.276C 346.535 956.45 347.487 957.402 348.661 957.402C 349.836 957.402 350.787 956.45 350.787 955.276z"/>
<path style="stroke:#000000; stroke-width:1; stroke-linejoin:round; stroke-linecap:round; fill:none" d="M 322.441 955.276C 322.441 954.101 321.489 953.15 320.315 953.15C 319.141 953.15 318.189 954.101 318.189 955.276C 318.189 956.45 319.141 957.402 320.315 957.402C 321.489 957.402 322.441 956.45 322.441 955.276z"/>
<path style="stroke:#000000; stroke-width:1; stroke-linejoin:round; stroke-linecap:round; fill:none" d="M 294.095 955.276C 294.095 954.101 293.143 953.15 291.969 953.15C 290.794 953.15 289.842 954.101 289.842 955.276C 289.842 956.45 290.794 957.402 291.969 957.402C 293.143 957.402 294.095 956.45 294.095 955.276z"/>
<path style="stroke:#000000; stroke-width:1; stroke-linejoin:round; stroke-linecap:round; fill:none" d="M 265.748 955.276C 265.748 954.101 264.796 953.15 263.622 953.15C 262.448 953.15 261.496 954.101 261.496 955.276C 261.496 956.45 262.448 957.402 263.622 957.402C 264.796 957.402 265.748 956.45 265.748 955.276z"/>
<path style="stroke:#000000; stroke-width:1; stroke-linejoin:round; stroke-linecap:round; fill:none" d="M 233.15 983.622C 233.15 982.448 234.101 981.496 235.276 981.496C 236.45 981.496 237.402 982.448 237.402 983.622C 237.402 984.796 236.45 985.748 235.276 985.748C 234.101 985.748 233.15 984.796 233.15 983.622z"/>
<path style="stroke:#000000; stroke-width:1; stroke-linejoin:round; stroke-linecap:round; fill:none" d="M 204.803 983.622C 204.803 982.448 205.755 981.496 206.929 981.496C 208.103 981.496 209.055 982.448 209.055 983.622C 209.055 984.796 208.103 985.748 206.929 985.748C 205.755 985.748 204.803 984.796 204.803 983.622z"/>
<path style="stroke:#000000; stroke-width:1; stroke-linejoin:round; stroke-linecap:round; fill:none" d="M 176.457 983.622C 176.457 982.448 177.408 981.496 178.583 981.496C 179.757 981.496 180.709 982.448 180.709 983.622C 180.709 984.796 179.757 985.748 178.583 985.748C 177.408 985.748 176.457 984.796 176.457 983.622z"/>
<path style="stroke:#000000; stroke-width:1; stroke-linejoin:round; stroke-linecap:round; fill:none" d="M 148.11 983.622C 148.11 982.448 149.062 981.496 150.236 981.496C 151.41 981.496 152.362 982.448 152.362 983.622C 152.362 984.796 151.41 985.748 150.236 985.748C 149.062 985.748 148.11 984.796 148.11 983.622z"/>
<path style="stroke:#000000; stroke-width:1; stroke-linejoin:round; stroke-linecap:round; fill:none" d="M 379.134 983.622C 379.134 982.448 378.182 981.496 377.008 981.496C 375.834 981.496 374.882 982.448 374.882 983.622C 374.882 984.796 375.834 985.748 377.008 985.748C 378.182 985.748 379.134 984.796 379.134 983.622z"/>
<path style="stroke:#000000; stroke-width:1; stroke-linejoin:round; stroke-linecap:round; fill:none" d="M 350.787 983.622C 350.787 982.448 349.836 981.496 348.661 981.496C 347.487 981.496 346.535 982.448 346.535 983.622C 346.535 984.796 347.487 985.748 348.661 985.748C 349.836 985.748 350.787 984.796 350.787 983.622z"/>
<path style="stroke:#000000; stroke-width:1; stroke-linejoin:round; stroke-linecap:round; fill:none" d="M 322.441 983.622C 322.441 982.448 321.489 981.496 320.315 981.496C 319.141 981.496 318.189 982.448 318.189 983.622C 318.189 984.796 319.141 985.748 320.315 985.748C 321.489 985.748 322.441 984.796 322.441 983.622z"/>
<path style="stroke:#000000; stroke-width:1; stroke-linejoin:round; stroke-linecap:round; fill:none" d="M 294.095 983.622C 294.095 982.448 293.143 981.496 291.969 981.496C 290.794 981.496 289.842 982.448 289.842 983.622C 289.842 984.796 290.794 985.748 291.969 985.748C 293.143 985.748 294.095 984.796 294.095 983.622z"/>
<path style="stroke:#000000; stroke-width:1; stroke-linejoin:round; stroke-linecap:round; fill:none" d="M 265.748 983.622C 265.748 982.448 264.796 981.496 263.622 981.496C 262.448 981.496 261.496 982.448 261.496 983.622C 261.496 984.796 262.448 985.748 263.622 985.748C 264.796 985.748 265.748 984.796 265.748 983.622z"/>
<path style="stroke:#000000; stroke-width:1; stroke-linejoin:round; stroke-linecap:round; fill:none" d="M 233.15 1011.97C 233.15 1010.79 234.101 1009.84 235.276 1009.84C 236.45 1009.84 237.402 1010.79 237.402 1011.97C 237.402 1013.14 236.45 1014.09 235.276 1014.09C 234.101 1014.09 233.15 1013.14 233.15 1011.97z"/>
<path style="stroke:#000000; stroke-width:1; stroke-linejoin:round; stroke-linecap:round; fill:none" d="M 204.803 1011.97C 204.803 1010.79 205.755 1009.84 206.929 1009.84C 208.103 1009.84 209.055 1010.79 209.055 1011.97C 209.055 1013.14 208.103 1014.09 206.929 1014.09C 205.755 1014.09 204.803 1013.14 204.803 1011.97z"/>
<path style="stroke:#000000; stroke-width:1; stroke-linejoin:round; stroke-linecap:round; fill:none" d="M 176.457 1011.97C 176.457 1010.79 177.408 1009.84 178.583 1009.84C 179.757 1009.84 180.709 1010.79 180.709 1011.97C 180.709 1013.14 179.757 1014.09 178.583 1014.09C 177.408 1014.09 176.457 1013.14 176.457 1011.97z"/>
<path style="stroke:#000000; stroke-width:1; stroke-linejoin:round; stroke-linecap:round; fill:none" d="M 148.11 1011.97C 148.11 1010.79 149.062 1009.84 150.236 1009.84C 151.41 1009.84 152.362 1010.79 152.362 1011.97C 152.362 1013.14 151.41 1014.09 150.236 1014.09C 149.062 1014.09 148.11 1013.14 148.11 1011.97z"/>
<path style="stroke:#000000; stroke-width:1; stroke-linejoin:round; stroke-linecap:round; fill:none" d="M 379.134 1011.97C 379.134 1010.79 378.182 1009.84 377.008 1009.84C 375.834 1009.84 374.882 1010.79 374.882 1011.97C 374.882 1013.14 375.834 1014.09 377.008 1014.09C 378.182 1014.09 379.134 1013.14 379.134 1011.97z"/>
<path style="stroke:#000000; stroke-width:1; stroke-linejoin:round; stroke-linecap:round; fill:none" d="M 350.787 1011.97C 350.787 1010.79 349.836 1009.84 348.661 1009.84C 347.487 1009.84 346.535 1010.79 346.535 1011.97C 346.535 1013.14 347.487 1014.09 348.661 1014.09C 349.836 1014.09 350.787 1013.14 350.787 1011.97z"/>
<path style="stroke:#000000; stroke-width:1; stroke-linejoin:round; stroke-linecap:round; fill:none" d="M 322.441 1011.97C 322.441 1010.79 321.489 1009.84 320.315 1009.84C 319.141 1009.84 318.189 1010.79 318.189 1011.97C 318.189 1013.14 319.141 1014.09 320.315 1014.09C 321.489 1014.09 322.441 1013.14 322.441 1011.97z"/>
<path style="stroke:#000000; stroke-width:1; stroke-linejoin:round; stroke-linecap:round; fill:none" d="M 294.095 1011.97C 294.095 1010.79 293.143 1009.84 291.969 1009.84C 290.794 1009.84 289.842 1010.79 289.842 1011.97C 289.842 1013.14 290.794 1014.09 291.969 1014.09C 293.143 1014.09 294.095 1013.14 294.095 1011.97z"/>
<path style="stroke:#000000; stroke-width:1; stroke-linejoin:round; stroke-linecap:round; fill:none" d="M 265.748 1011.97C 265.748 1010.79 264.796 1009.84 263.622 1009.84C 262.448 1009.84 261.496 1010.79 261.496 1011.97C 261.496 1013.14 262.448 1014.09 263.622 1014.09C 264.796 1014.09 265.748 1013.14 265.748 1011.97z"/>
</g>
</svg>